<svg id="visual" viewBox="0 0 1920 1080" width="1920" height="1080" xmlns="http://www.w3.org/2000/svg" xmlns:xlink="http://www.w3.org/1999/xlink" version="1.1"><path d="M0 386L15.2 391C30.3 396 60.7 406 91.2 432.5C121.7 459 152.3 502 182.8 492.7C213.3 483.3 243.7 421.7 274.2 457C304.7 492.3 335.3 624.7 365.8 629.8C396.3 635 426.7 513 457.2 457.2C487.7 401.3 518.3 411.7 548.8 402.8C579.3 394 609.7 366 640 347.5C670.3 329 700.7 320 731.2 316.7C761.7 313.3 792.3 315.7 822.8 339.7C853.3 363.7 883.7 409.3 914.2 452C944.7 494.7 975.3 534.3 1005.8 528.5C1036.3 522.7 1066.7 471.3 1097.2 450.2C1127.7 429 1158.3 438 1188.8 421.2C1219.3 404.3 1249.7 361.7 1280 350.2C1310.3 338.7 1340.7 358.3 1371.2 431C1401.7 503.7 1432.3 629.3 1462.8 626.2C1493.3 623 1523.7 491 1554.2 417.8C1584.7 344.7 1615.3 330.3 1645.8 329.5C1676.3 328.7 1706.7 341.3 1737.2 391.8C1767.7 442.3 1798.3 530.7 1828.8 570.2C1859.3 609.7 1889.7 600.3 1904.8 595.7L1920 591L1920 1081L1904.8 1081C1889.7 1081 1859.3 1081 1828.8 1081C1798.3 1081 1767.7 1081 1737.2 1081C1706.7 1081 1676.3 1081 1645.8 1081C1615.3 1081 1584.7 1081 1554.2 1081C1523.7 1081 1493.3 1081 1462.8 1081C1432.3 1081 1401.7 1081 1371.2 1081C1340.7 1081 1310.3 1081 1280 1081C1249.7 1081 1219.3 1081 1188.8 1081C1158.3 1081 1127.7 1081 1097.2 1081C1066.7 1081 1036.3 1081 1005.8 1081C975.3 1081 944.7 1081 914.2 1081C883.7 1081 853.3 1081 822.8 1081C792.3 1081 761.7 1081 731.2 1081C700.7 1081 670.3 1081 640 1081C609.7 1081 579.3 1081 548.8 1081C518.3 1081 487.7 1081 457.2 1081C426.7 1081 396.3 1081 365.8 1081C335.3 1081 304.7 1081 274.2 1081C243.7 1081 213.3 1081 182.8 1081C152.3 1081 121.7 1081 91.2 1081C60.7 1081 30.3 1081 15.2 1081L0 1081Z" fill="#FFFFFF" stroke-linecap="round" stroke-linejoin="miter"></path></svg>