<svg id="visual" viewBox="0 0 1920 1080" width="1920" height="1080" xmlns="http://www.w3.org/2000/svg" xmlns:xlink="http://www.w3.org/1999/xlink" version="1.1"><path d="M0 654L35.5 705.2C71 756.3 142 858.7 213.2 890.7C284.3 922.7 355.7 884.3 426.8 829.7C498 775 569 704 640 656.5C711 609 782 585 853.2 627.2C924.3 669.3 995.7 777.7 1066.8 834C1138 890.3 1209 894.7 1280 847.5C1351 800.3 1422 701.7 1493.2 693.8C1564.3 686 1635.7 769 1706.8 783.5C1778 798 1849 744 1884.5 717L1920 690L1920 1081L1884.5 1081C1849 1081 1778 1081 1706.8 1081C1635.7 1081 1564.3 1081 1493.2 1081C1422 1081 1351 1081 1280 1081C1209 1081 1138 1081 1066.8 1081C995.7 1081 924.3 1081 853.2 1081C782 1081 711 1081 640 1081C569 1081 498 1081 426.8 1081C355.7 1081 284.3 1081 213.2 1081C142 1081 71 1081 35.5 1081L0 1081Z" fill="#ffffff" stroke-linecap="round" stroke-linejoin="miter"></path></svg>